<svg version="1.2" baseProfile="tiny-ps" xmlns="http://www.w3.org/2000/svg" viewBox="0 0 681 212" width="681" height="212">
	<title>Layer</title>
	<style>
		tspan { white-space:pre }
		.shp0 { fill: #ffffff } 
		.shp1 { fill: #0fa0fd } 
	</style>
	<path id="Layer" class="shp0" d="M618 80.69L618 134.98C618 142.84 624.31 150.55 632.09 151.65C634.44 151.99 636.83 151.83 639.1 151.16C641.38 150.5 643.48 149.36 645.28 147.81C647.07 146.26 648.51 144.34 649.5 142.19C650.49 140.03 651 137.69 651 135.32L651 80.32C651 77.94 650.48 75.6 649.48 73.44C648.49 71.28 647.04 69.36 645.24 67.82C643.43 66.27 641.32 65.13 639.03 64.48C636.75 63.82 634.35 63.67 632 64.03C624.26 65.13 618 72.83 618 80.69Z" />
	<path id="Layer" class="shp0" d="M576.48 63.93L388 63.93L388 44.83C388 36.97 381.68 29.26 373.89 28.17C371.55 27.83 369.16 27.99 366.89 28.65C364.62 29.32 362.51 30.46 360.72 32C358.93 33.55 357.49 35.46 356.5 37.61C355.52 39.77 355 42.1 355 44.47L355 80.47C355 82.63 355.42 84.76 356.25 86.76C357.07 88.75 358.28 90.56 359.8 92.09C361.33 93.62 363.14 94.83 365.13 95.66C367.12 96.49 369.25 96.92 371.41 96.93L560 96.93L560 118.93L304 118.93L304 81.08C304 72.78 297.27 65.02 289 64.29C286.72 64.08 284.42 64.35 282.25 65.08C280.07 65.81 278.08 66.98 276.38 68.52C274.69 70.06 273.34 71.94 272.41 74.04C271.48 76.13 271 78.4 271 80.69L271 118.93L217 118.93L217 80.4C217 78.23 216.57 76.09 215.74 74.09C214.91 72.08 213.69 70.27 212.16 68.74C210.62 67.21 208.8 65.99 206.8 65.17C204.79 64.34 202.65 63.92 200.48 63.93L136.29 63.93C128.43 63.93 120.73 70.24 119.63 78.03C119.29 80.38 119.45 82.77 120.12 85.05C120.78 87.33 121.93 89.44 123.49 91.23C125.04 93.02 126.96 94.46 129.12 95.44C131.28 96.43 133.63 96.93 136 96.93L184 96.93L184 118.93L136.28 118.93C128.42 118.93 120.72 125.24 119.62 133.03C119.28 135.38 119.44 137.77 120.11 140.05C120.78 142.33 121.92 144.44 123.48 146.23C125.03 148.03 126.96 149.46 129.12 150.45C131.28 151.43 133.63 151.94 136 151.93L576.48 151.93C578.65 151.94 580.79 151.52 582.8 150.69C584.8 149.87 586.62 148.65 588.16 147.12C589.69 145.59 590.91 143.78 591.74 141.77C592.57 139.77 593 137.63 593 135.46L593 80.4C593 78.23 592.57 76.09 591.74 74.09C590.91 72.08 589.69 70.27 588.16 68.74C586.62 67.21 584.8 65.99 582.8 65.17C580.79 64.34 578.65 63.92 576.48 63.93L576.48 63.93Z" />
	<path id="Layer" fill-rule="evenodd" class="shp0" d="M94.48 81.65L94.48 194.41C94.59 198.85 92.9 203.14 89.8 206.32C86.7 209.49 82.45 211.29 78.01 211.29C73.58 211.29 69.33 209.49 66.23 206.32C63.13 203.14 61.44 198.85 61.55 194.41L61.55 159.33L16.47 159.33C14.31 159.33 12.17 158.9 10.17 158.08C8.17 157.25 6.35 156.04 4.82 154.51C3.29 152.98 2.08 151.16 1.25 149.16C0.43 147.16 0 145.02 0 142.86L0 80.65C0 78.49 0.43 76.35 1.25 74.35C2.08 72.35 3.29 70.53 4.82 69C6.35 67.47 8.17 66.26 10.17 65.43C12.17 64.61 14.31 64.18 16.47 64.18L79 64.18C87.2 65.15 94.48 73.21 94.48 81.65ZM56.76 111.17C56.76 110.84 56.7 110.52 56.57 110.22C56.45 109.91 56.27 109.64 56.03 109.41C55.8 109.17 55.53 108.99 55.22 108.87C54.92 108.74 54.6 108.68 54.27 108.68L47.12 108.68C46.79 108.68 46.47 108.74 46.16 108.87C45.86 108.99 45.59 109.17 45.35 109.41C45.12 109.64 44.94 109.91 44.81 110.21C44.68 110.52 44.62 110.84 44.62 111.17L44.62 119.07C44.62 119.4 44.68 119.72 44.81 120.03C44.94 120.33 45.12 120.61 45.35 120.84C45.58 121.07 45.86 121.25 46.16 121.38C46.47 121.51 46.79 121.57 47.12 121.57L54.27 121.57C54.6 121.57 54.92 121.51 55.23 121.38C55.53 121.25 55.8 121.07 56.03 120.84C56.27 120.6 56.45 120.33 56.57 120.03C56.7 119.72 56.76 119.4 56.76 119.07L56.76 111.17Z" />
	<path id="Layer" class="shp0" d="M256.22 210.97C242.44 210.97 231.3 199.83 231.3 186.05C231.3 172.27 242.44 161.13 256.22 161.13C270 161.13 281.14 172.27 281.14 186.05C281.14 199.83 270 210.97 256.22 210.97Z" />
	<path id="Layer" class="shp0" d="M313.24 210.97C299.46 210.97 288.32 199.83 288.32 186.05C288.32 172.27 299.46 161.13 313.24 161.13C327.02 161.13 338.16 172.27 338.16 186.05C338.16 199.83 327.02 210.97 313.24 210.97Z" />
	<path id="Layer" class="shp1" d="M611.45 29.93L627.55 48.31C628.19 49.04 628.94 49.65 629.79 50.12C630.63 50.6 631.55 50.92 632.5 51.09C633.45 51.25 634.42 51.25 635.38 51.09C636.33 50.93 637.25 50.6 638.09 50.13C639.08 49.52 639.93 48.7 640.57 47.73C641.21 46.76 641.64 45.66 641.82 44.51C642 43.36 641.93 42.18 641.62 41.06C641.31 39.94 640.75 38.9 640 38.01L623.73 19.38C622.98 18.49 622.05 17.77 621 17.28C619.95 16.78 618.81 16.51 617.65 16.5C616.49 16.48 615.34 16.71 614.27 17.18C613.21 17.65 612.26 18.34 611.49 19.21C610.88 19.96 610.39 20.81 610.07 21.72C609.74 22.63 609.57 23.59 609.56 24.56C609.56 25.53 609.72 26.49 610.04 27.41C610.37 28.32 610.84 29.18 611.45 29.93Z" />
	<path id="Layer" class="shp1" d="M641 47.48L678.8 13.4C679.41 12.65 679.89 11.8 680.21 10.89C680.53 9.98 680.7 9.02 680.7 8.05C680.7 7.09 680.53 6.13 680.21 5.22C679.89 4.31 679.41 3.46 678.8 2.71C678.02 1.84 677.07 1.14 676 0.67C674.93 0.2 673.77 -0.03 672.6 -0.01C671.44 0.01 670.29 0.29 669.24 0.79C668.18 1.3 667.25 2.03 666.51 2.93L628.51 37.26C627.77 38.15 627.22 39.2 626.92 40.32C626.62 41.44 626.56 42.62 626.75 43.76C626.94 44.91 627.37 46 628.02 46.97C628.67 47.93 629.52 48.74 630.51 49.35C631.35 49.81 632.27 50.13 633.22 50.29C634.17 50.44 635.14 50.43 636.08 50.27C637.03 50.1 637.94 49.77 638.78 49.29C639.62 48.82 640.37 48.21 641 47.48Z" />
</svg>