<svg id="Layer_1" data-name="Layer 1" xmlns="http://www.w3.org/2000/svg" viewBox="0 0 680.67 210.98"><defs><style>.cls-1{fill:#1c1e21;}.cls-2{fill:#4c21ea;}</style></defs><path class="cls-1" d="M617,69.76v54.29c0,7.86,6.31,15.57,14.09,16.67A16.52,16.52,0,0,0,650,124.39v-55A16.51,16.51,0,0,0,631,53.1C623.26,54.2,617,61.9,617,69.76Z" transform="translate(1 10.93)"/><path class="cls-1" d="M575.48,53H387V33.9c0-7.86-6.32-15.57-14.11-16.66A16.5,16.5,0,0,0,354,33.54v36A16.46,16.46,0,0,0,370.41,86H559v22H303V70.15c0-8.3-6.73-16.06-15-16.79a16.49,16.49,0,0,0-18,16.4V108H216V69.47A16.47,16.47,0,0,0,199.48,53H135.29c-7.86,0-15.56,6.31-16.66,14.1A16.51,16.51,0,0,0,135,86h48v22H135.28c-7.86,0-15.56,6.31-16.66,14.1A16.51,16.51,0,0,0,135,141H575.48A16.47,16.47,0,0,0,592,124.53V69.47A16.47,16.47,0,0,0,575.48,53Z" transform="translate(1 10.93)"/><path class="cls-1" d="M78,53.25H15.47A16.47,16.47,0,0,0-1,69.72v62.21A16.47,16.47,0,0,0,15.47,148.4H60.55v35.08a16.47,16.47,0,1,0,32.93,0V70.72C93.48,62.28,86.2,54.22,78,53.25ZM55.76,108.14a2.49,2.49,0,0,1-2.49,2.5H46.12a2.5,2.5,0,0,1-2.5-2.5v-7.9a2.49,2.49,0,0,1,2.5-2.49h7.15a2.48,2.48,0,0,1,2.49,2.49Z" transform="translate(1 10.93)"/><circle class="cls-1" cx="256.22" cy="186.05" r="24.92"/><circle class="cls-1" cx="313.24" cy="186.05" r="24.92"/><path class="cls-2" d="M610.45,19l16.1,18.38a8.5,8.5,0,0,0,10.54,1.82A8.1,8.1,0,0,0,639,27.08L622.73,8.45a8.09,8.09,0,0,0-12.24-.17A8.49,8.49,0,0,0,610.45,19Z" transform="translate(1 10.93)"/><path class="cls-2" d="M640,36.55l37.8-34.08a8.48,8.48,0,0,0,0-10.69A8.09,8.09,0,0,0,665.51-8l-38,34.33a8.1,8.1,0,0,0,2,12.09A8.49,8.49,0,0,0,640,36.55Z" transform="translate(1 10.93)"/></svg>